<?xml version="1.0" encoding="utf-8"?>
<!-- Generator: Adobe Illustrator 26.4.1, SVG Export Plug-In . SVG Version: 6.00 Build 0)  -->
<svg version="1.0" xmlns="http://www.w3.org/2000/svg" xmlns:xlink="http://www.w3.org/1999/xlink" x="0px" y="0px"
	 viewBox="0 0 115.5 90.06" style="enable-background:new 0 0 115.5 90.06;" xml:space="preserve">
<style type="text/css">
	.st0{fill:url(#outer_00000181048827271747515260000016293923639080049836_);}
	.st1{fill:url(#SVGID_1_);}
	.st2{opacity:0.4;fill:url(#SVGID_00000149360015935393271940000015828616531417864623_);enable-background:new    ;}
	.st3{fill:#FFFFFF;}
	.st4{opacity:0.4;fill:url(#SVGID_00000075162743381850310210000011650711162345371789_);enable-background:new    ;}
	.st5{fill:#565F64;}
	.st6{fill:url(#SVGID_00000047764164742855721670000000904668736473461437_);}
	.st7{fill:#A4AAAE;fill-opacity:0.6;}
	.st8{fill:#333E46;}
	.st9{fill:url(#SVGID_00000134936378831664303310000016658368716751621023_);}
	.st10{fill:url(#SVGID_00000158731982927891927660000007838234311004095617_);fill-opacity:0.8;}
	.st11{opacity:0.8;fill:url(#SVGID_00000115514934080026506300000012443022907415841926_);enable-background:new    ;}
	.st12{fill:url(#SVGID_00000035531909170710726460000006091119230012004482_);}
	.st13{fill:url(#SVGID_00000097460573837287532750000014171438993971980185_);}
	.st14{fill:url(#SVGID_00000078761991639709163290000017156423144619470744_);}
	.st15{fill:url(#SVGID_00000011010252632230279170000017582336323898587571_);}
	.st16{fill:url(#SVGID_00000149356940969746801820000012521321569541842832_);}
	.st17{fill:url(#SVGID_00000145048969017867838320000016335029022281422230_);}
	.st18{fill:url(#SVGID_00000104701741000009369200000011886901667105296822_);}
	.st19{fill:#FBFBFB;}
	.st20{fill:#333F47;}
</style>
<g id="katman_2">
</g>
<g id="mb-stern_x5F_10">
	
		<linearGradient id="outer_00000181048056269285698270000013371209522491488411_" gradientUnits="userSpaceOnUse" x1="33.7489" y1="66.4048" x2="81.7529" y2="26.2015" gradientTransform="matrix(1 0 0 -1 0 91.3307)">
		<stop  offset="0" style="stop-color:#FFFFFF"/>
		<stop  offset="0.1" style="stop-color:#E7E8E6"/>
		<stop  offset="0.1" style="stop-color:#CDD0D0"/>
		<stop  offset="0.2" style="stop-color:#B5BBBD"/>
		<stop  offset="0.2" style="stop-color:#A5ACAF"/>
		<stop  offset="0.3" style="stop-color:#9BA3A7"/>
		<stop  offset="0.3" style="stop-color:#98A0A4"/>
		<stop  offset="0.4" style="stop-color:#828A8F"/>
		<stop  offset="0.5" style="stop-color:#667075"/>
		<stop  offset="0.6" style="stop-color:#535C63"/>
		<stop  offset="0.7" style="stop-color:#475158"/>
		<stop  offset="0.8" style="stop-color:#434D54"/>
		<stop  offset="1" style="stop-color:#475157"/>
	</linearGradient>
	<path id="outer_24_" style="fill:url(#outer_00000181048056269285698270000013371209522491488411_);" d="M89.05,45.03
		c0,17.3-14,31.3-31.3,31.3s-31.3-14-31.3-31.3s14-31.3,31.3-31.3S89.05,27.73,89.05,45.03z M57.75,15.63
		c-16.3,0-29.4,13.1-29.4,29.4s13.2,29.4,29.4,29.4c16.3,0,29.4-13.2,29.4-29.4C87.15,28.73,74.05,15.63,57.75,15.63z"/>
	
		<linearGradient id="SVGID_1_" gradientUnits="userSpaceOnUse" x1="35.2223" y1="65.2444" x2="80.2223" y2="27.4444" gradientTransform="matrix(1 0 0 -1 0 91.3307)">
		<stop  offset="0" style="stop-color:#0B1F2A"/>
		<stop  offset="0.2" style="stop-color:#333F47"/>
		<stop  offset="0.5" style="stop-color:#777F84"/>
		<stop  offset="0.5" style="stop-color:#81898D"/>
		<stop  offset="0.7" style="stop-color:#B3B8B8"/>
		<stop  offset="0.8" style="stop-color:#D2D5D3"/>
		<stop  offset="0.8" style="stop-color:#DEE0DD"/>
		<stop  offset="1" style="stop-color:#FBFBFB"/>
	</linearGradient>
	<path class="st1" d="M57.75,15.63c-16.3,0-29.4,13.1-29.4,29.4s13.2,29.4,29.4,29.4c16.3,0,29.4-13.2,29.4-29.4
		C87.15,28.73,74.05,15.63,57.75,15.63z M57.75,72.53c-15.2,0-27.5-12.3-27.5-27.5s12.3-27.5,27.5-27.5s27.5,12.3,27.5,27.5
		S72.95,72.53,57.75,72.53z"/>
	
		<linearGradient id="SVGID_00000054956469039998785460000008262661850678858395_" gradientUnits="userSpaceOnUse" x1="1624.4867" y1="-164.6404" x2="1646.3868" y2="-224.8403" gradientTransform="matrix(-1 0 0 1 1693.1744 239.7315)">
		<stop  offset="0" style="stop-color:#E1E3E1"/>
		<stop  offset="0.1" style="stop-color:#C1C5C4"/>
		<stop  offset="0.3" style="stop-color:#9BA1A2"/>
		<stop  offset="0.5" style="stop-color:#7D8487"/>
		<stop  offset="0.7" style="stop-color:#687074;stop-opacity:0"/>
		<stop  offset="0.8" style="stop-color:#5B6469;stop-opacity:0"/>
		<stop  offset="1" style="stop-color:#576065;stop-opacity:0"/>
	</linearGradient>
	<path style="opacity:0.4;fill:url(#SVGID_00000054956469039998785460000008262661850678858395_);enable-background:new    ;" d="
		M57.75,76.33c17.3,0,31.3-14,31.3-31.3s-14-31.3-31.3-31.3s-31.3,14-31.3,31.3S40.45,76.33,57.75,76.33L57.75,76.33z M57.75,13.03
		c17.6,0,32,14.4,32,32s-14.4,32-32,32s-32-14.4-32-32S40.15,13.03,57.75,13.03L57.75,13.03z"/>
	<path class="st3" d="M27.95,45.13c0-16.4,13.3-29.9,29.8-29.9l0,0c16.5,0,29.8,13.4,29.8,29.9l0,0c0,16.4-13.3,29.7-29.8,29.7l0,0
		C41.25,74.83,27.95,61.53,27.95,45.13L27.95,45.13z M37.25,24.53c-5.3,5.3-8.6,12.6-8.6,20.6l0,0c0,8,3.3,15.3,8.5,20.5l0,0
		c5.3,5.2,12.6,8.5,20.6,8.5l0,0c8,0,15.3-3.2,20.5-8.5l0,0c5.3-5.2,8.5-12.5,8.5-20.5l0,0c0-8-3.3-15.3-8.5-20.6l0,0
		c-5.2-5.3-12.5-8.6-20.5-8.6l0,0C49.75,15.93,42.45,19.23,37.25,24.53L37.25,24.53z"/>
	
		<linearGradient id="SVGID_00000144319012543111568750000000654634484307067305_" gradientUnits="userSpaceOnUse" x1="43.9516" y1="70.2019" x2="71.5502" y2="22.4044" gradientTransform="matrix(1 0 0 -1 0 91.3307)">
		<stop  offset="0" style="stop-color:#E1E3E1"/>
		<stop  offset="0.1" style="stop-color:#C1C5C4"/>
		<stop  offset="0.3" style="stop-color:#9BA1A2"/>
		<stop  offset="0.5" style="stop-color:#7D8487"/>
		<stop  offset="0.7" style="stop-color:#687074;stop-opacity:0"/>
		<stop  offset="0.8" style="stop-color:#5B6469;stop-opacity:0"/>
		<stop  offset="1" style="stop-color:#576065;stop-opacity:0"/>
	</linearGradient>
	<path style="opacity:0.4;fill:url(#SVGID_00000144319012543111568750000000654634484307067305_);enable-background:new    ;" d="
		M57.75,72.63c-7.4,0-14.3-2.9-19.5-8.1s-8.1-12.1-8.1-19.5s2.9-14.3,8.1-19.5s12.1-8.1,19.5-8.1s14.3,2.9,19.5,8.1
		c5.2,5.2,8.1,12.1,8.1,19.5s-2.9,14.3-8.1,19.5C72.05,69.73,65.15,72.63,57.75,72.63L57.75,72.63z M57.75,71.83
		c7.1,0,13.9-2.8,18.9-7.8c5.1-5.1,7.8-11.8,7.8-18.9s-2.8-13.9-7.8-18.9c-5.1-5.1-11.8-7.8-18.9-7.8s-13.9,2.8-18.9,7.8
		c-5.1,4.9-7.9,11.7-7.9,18.8s2.8,13.9,7.8,18.9C43.85,69.03,50.65,71.83,57.75,71.83L57.75,71.83z"/>
	<path class="st3" d="M58.15,44.43"/>
	<path class="st3" d="M82.05,58.03c-0.5-0.4-19.8-15.7-19.8-15.7l-4.5-25.7c-0.3,0.1-0.7,0.4-0.9,0.8l-3.2,25l-19.9,15.3
		c0,0-0.4,0.5-0.6,0.8c-0.1,0.2-0.1,0.5-0.1,0.8l0,0l24.6-10.1l24.6,10.1l0,0C82.45,58.83,82.25,58.33,82.05,58.03z"/>
	<path class="st5" d="M57.95,45.83l-0.2,4.6l22.6,9.1c0.8,0.4,1.4,0.2,2-0.2l-24.1-13.6C58.15,45.63,57.95,45.73,57.95,45.83z"/>
	
		<linearGradient id="SVGID_00000147941255576401559720000005396942352465598359_" gradientUnits="userSpaceOnUse" x1="70.2391" y1="38.9103" x2="68.5391" y2="36.1103" gradientTransform="matrix(1 0 0 -1 0 91.3307)">
		<stop  offset="0" style="stop-color:#27343C"/>
		<stop  offset="1" style="stop-color:#00111E;stop-opacity:0"/>
	</linearGradient>
	<path style="fill:url(#SVGID_00000147941255576401559720000005396942352465598359_);" d="M57.95,45.83c0,0,1.3,2.3,2.8,3.9
		c2.1,2.3,4.9,3.9,4.9,3.9l14.7,5.9c0.8,0.4,1.4,0.2,2-0.2l-24.1-13.6C58.15,45.63,57.95,45.73,57.95,45.83z"/>
	<path class="st7" d="M82.25,58.43c0-0.1-0.1-0.2-0.2-0.4l-20.6-15.1l-2.8,1.8c0,0,0.2,0.1,0.3,0c0.3-0.1,0.9-0.2,1.5,0
		c0.5,0.2,21.8,13.8,21.8,13.8S82.25,58.53,82.25,58.43z"/>
	<path class="st8" d="M81.55,57.53l-19.2-15.2l0,0l-0.9,0.6l20.6,15.2C81.95,57.93,81.75,57.73,81.55,57.53z"/>
	<path class="st5" d="M58.25,44.33c-0.1,0.1-0.1,0.1-0.1,0.1s0,0.2,0.2,0.1c0.1-0.1,3-1.6,4-2.2l-3.5-24c-0.1-0.9-0.5-1.3-1.2-1.6
		l0.4,27.8L58.25,44.33z"/>
	<path class="st7" d="M56.55,18.33v1.3l-2.2,22.1c0,0.3,0.1,0.6,0.4,0.8l1.3,1l0.9-24.4l0.1-1.9
		C56.75,17.43,56.65,17.83,56.55,18.33z"/>
	<path class="st7" d="M55.35,43.93l-1.2-1l-20.3,14.7c0,0-0.6,0.4-0.7,0.8l0,0l0,0l0,0l0.7-0.4l0,0l21.3-13.4
		C55.55,44.43,55.65,44.23,55.35,43.93z"/>
	<path class="st5" d="M57.45,45.83c0-0.1-0.1-0.2-0.2-0.1l-24.2,13.7c0.6,0.4,1.2,0.5,2,0.2l22.6-9.1L57.45,45.83z"/>
	
		<linearGradient id="SVGID_00000114039820854940038170000016088767688172292230_" gradientUnits="userSpaceOnUse" x1="65.3311" y1="49.1908" x2="62.5311" y2="53.6908" gradientTransform="matrix(1 0 0 -1 0 91.3307)">
		<stop  offset="0.1" style="stop-color:#02131F"/>
		<stop  offset="0.9" style="stop-color:#02131F;stop-opacity:0"/>
	</linearGradient>
	<path style="fill:url(#SVGID_00000114039820854940038170000016088767688172292230_);" d="M58.15,44.43l0.1-0.1
		C58.15,44.43,58.15,44.43,58.15,44.43L58.15,44.43c0,0,0,0.1,0.1,0.1h0.1c0.1-0.1,3-1.6,4-2.2l-0.4-2.9l0,0l-3.1-21.1
		c0-0.4-0.1-0.7-0.3-0.9c0,0,1.5,20.2,1.5,22.4C60.05,42.73,58.15,44.43,58.15,44.43z"/>
	
		<linearGradient id="SVGID_00000109018900284044515590000010621018629840580500_" gradientUnits="userSpaceOnUse" x1="57.7327" y1="41.9669" x2="53.5327" y2="40.7669" gradientTransform="matrix(1 0 0 -1 0 91.3307)">
		<stop  offset="0.2" style="stop-color:#02131F"/>
		<stop  offset="0.9" style="stop-color:#02131F;stop-opacity:0"/>
	</linearGradient>
	<path style="fill:url(#SVGID_00000109018900284044515590000010621018629840580500_);fill-opacity:0.8;" d="M57.45,45.83
		c0-0.1-0.1-0.2-0.2-0.1l-24.2,13.7c0.6,0.4,1.2,0.5,2,0.2l22.6-9.1L57.45,45.83z"/>
	
		<linearGradient id="SVGID_00000015316552384336908150000003269264049862721681_" gradientUnits="userSpaceOnUse" x1="46.5423" y1="36.3997" x2="45.9423" y2="37.8997" gradientTransform="matrix(1 0 0 -1 0 91.3307)">
		<stop  offset="0" style="stop-color:#02131F"/>
		<stop  offset="0.1" style="stop-color:#02131F"/>
		<stop  offset="1" style="stop-color:#02131F;stop-opacity:0"/>
	</linearGradient>
	<path style="opacity:0.8;fill:url(#SVGID_00000015316552384336908150000003269264049862721681_);enable-background:new    ;" d="
		M35.05,59.53l22.6-9.1l-0.2-4.4c-0.4,1.2-1.1,2.5-3,3.5l0,0c-1.4,0.8-14.8,7.4-19.6,9.7c-0.3,0.2-0.7,0.3-0.9,0.4
		C34.35,59.83,34.65,59.73,35.05,59.53z"/>
	
		<linearGradient id="SVGID_00000041294493301806291600000008073612697057333122_" gradientUnits="userSpaceOnUse" x1="61.3526" y1="61.0887" x2="57.9526" y2="60.6887" gradientTransform="matrix(1 0 0 -1 0 91.3307)">
		<stop  offset="0.3" style="stop-color:#02131F"/>
		<stop  offset="0.3" style="stop-color:#02131F"/>
		<stop  offset="0.8" style="stop-color:#02131F;stop-opacity:0"/>
	</linearGradient>
	<path style="fill:url(#SVGID_00000041294493301806291600000008073612697057333122_);" d="M58.25,44.33c-0.1,0.1-0.1,0.1-0.1,0.1
		s0,0.2,0.2,0.1c0.1-0.1,3-1.6,4-2.2l-3.5-24c-0.1-0.9-0.5-1.3-1.2-1.6l0.4,27.8L58.25,44.33z"/>
	
		<linearGradient id="SVGID_00000078029599597986192050000013887323178449578430_" gradientUnits="userSpaceOnUse" x1="61.4584" y1="61.1459" x2="59.1584" y2="60.8459" gradientTransform="matrix(1 0 0 -1 0 91.3307)">
		<stop  offset="0.4" style="stop-color:#27343C"/>
		<stop  offset="1" style="stop-color:#3B474E;stop-opacity:0"/>
	</linearGradient>
	<path style="fill:url(#SVGID_00000078029599597986192050000013887323178449578430_);" d="M58.25,44.33c-0.1,0.1-0.1,0.1-0.1,0.1
		s0,0.2,0.2,0.1c0.1-0.1,3-1.6,4-2.2l-3.5-24c-0.1-0.9-0.5-1.3-1.2-1.6l0.4,27.8L58.25,44.33z"/>
	
		<linearGradient id="SVGID_00000155863446512771330100000002567984250512259770_" gradientUnits="userSpaceOnUse" x1="25.3904" y1="45.4717" x2="53.2904" y2="29.3717" gradientTransform="matrix(1 0 0 -1 0 91.3307)">
		<stop  offset="0" style="stop-color:#24303A;stop-opacity:0"/>
		<stop  offset="0" style="stop-color:#25323B;stop-opacity:0"/>
		<stop  offset="0.1" style="stop-color:#27343C"/>
	</linearGradient>
	<path style="fill:url(#SVGID_00000155863446512771330100000002567984250512259770_);" d="M30.85,57.43c-0.7-1.6-4.7-9.4-0.3-24.4
		h-1.7c-0.9,3-1.6,4.8-2,7.5c0,0-0.2,1-0.3,2.1c-0.1,1.1-0.1,1.7-0.1,2.4c0,6,1.5,9.5,1.5,9.5c1.6,5,4.4,9.5,8.2,12.9
		c3.3,2.9,8.4,5.1,12.6,5.9C48.05,73.23,36.05,68.13,30.85,57.43z"/>
	
		<linearGradient id="SVGID_00000058585887611520584550000014623006770830736309_" gradientUnits="userSpaceOnUse" x1="57.7009" y1="40.9031" x2="57.7009" y2="45.7031" gradientTransform="matrix(1 0 0 -1 0 91.3307)">
		<stop  offset="0.3" style="stop-color:#A5ABAF"/>
		<stop  offset="1" style="stop-color:#A5ABAF;stop-opacity:0"/>
	</linearGradient>
	<path style="fill:url(#SVGID_00000058585887611520584550000014623006770830736309_);" d="M58.15,45.63h-0.9l0,0
		c0.1,0,0.2,0,0.2,0.1l0.2,4.6l0,0h0.1l0.2-4.6C57.95,45.63,58.05,45.53,58.15,45.63C58.15,45.63,58.15,45.63,58.15,45.63z"/>
	
		<linearGradient id="SVGID_00000130610245670485202820000004882447194731045009_" gradientUnits="userSpaceOnUse" x1="73.4009" y1="76.0031" x2="73.4009" y2="15.0031" gradientTransform="matrix(1 0 0 -1 0 91.3307)">
		<stop  offset="0" style="stop-color:#DEE0DD"/>
		<stop  offset="0" style="stop-color:#C5C9C7"/>
		<stop  offset="0" style="stop-color:#9EA4A5"/>
		<stop  offset="0" style="stop-color:#82898C"/>
		<stop  offset="0" style="stop-color:#71797D"/>
		<stop  offset="0" style="stop-color:#6B7378"/>
		<stop  offset="0.2" style="stop-color:#333F47"/>
		<stop  offset="0.5" style="stop-color:#27343C"/>
		<stop  offset="0.8" style="stop-color:#333F47"/>
		<stop  offset="1" style="stop-color:#434D54"/>
	</linearGradient>
	<path style="fill:url(#SVGID_00000130610245670485202820000004882447194731045009_);" d="M67.75,15.33c10.5,4,20.4,15,20.4,28.9
		c0,16.8-13.4,30.5-30.4,30.5v1.6c17,0,31.3-14,31.3-31.3C89.05,31.23,80.25,19.63,67.75,15.33z"/>
	
		<linearGradient id="SVGID_00000031924080047543076580000006972328229980851596_" gradientUnits="userSpaceOnUse" x1="57.7509" y1="77.6031" x2="58.0509" y2="77.6031" gradientTransform="matrix(1 0 0 -1 0 91.3307)">
		<stop  offset="0" style="stop-color:#DEE0DD"/>
		<stop  offset="0" style="stop-color:#C5C9C7"/>
		<stop  offset="0" style="stop-color:#9EA4A5"/>
		<stop  offset="0" style="stop-color:#82898C"/>
		<stop  offset="0" style="stop-color:#71797D"/>
		<stop  offset="0" style="stop-color:#6B7378"/>
		<stop  offset="0.2" style="stop-color:#333F47"/>
		<stop  offset="0.5" style="stop-color:#27343C"/>
		<stop  offset="0.8" style="stop-color:#333F47"/>
		<stop  offset="1" style="stop-color:#434D54"/>
	</linearGradient>
	<path style="fill:url(#SVGID_00000031924080047543076580000006972328229980851596_);" d="M58.05,13.73c-0.1,0-0.2,0-0.3,0
		C57.85,13.73,57.95,13.73,58.05,13.73L58.05,13.73z"/>
	
		<linearGradient id="SVGID_00000170962946274345474330000010825998896359570616_" gradientUnits="userSpaceOnUse" x1="83.04" y1="70.2105" x2="69.54" y2="50.4105" gradientTransform="matrix(1 0 0 -1 0 91.3307)">
		<stop  offset="0.7" style="stop-color:#27343C"/>
		<stop  offset="0.7" style="stop-color:#2B373F"/>
		<stop  offset="0.7" style="stop-color:#36424A"/>
		<stop  offset="0.7" style="stop-color:#49545B"/>
		<stop  offset="0.8" style="stop-color:#646D73;stop-opacity:0"/>
		<stop  offset="0.8" style="stop-color:#868D92;stop-opacity:0"/>
		<stop  offset="0.8" style="stop-color:#B0B5B8;stop-opacity:0"/>
		<stop  offset="0.8" style="stop-color:#E1E3E4;stop-opacity:0"/>
		<stop  offset="0.8" style="stop-color:#FFFFFF;stop-opacity:0"/>
	</linearGradient>
	<path style="fill:url(#SVGID_00000170962946274345474330000010825998896359570616_);" d="M84.55,33.23c-7-16.1-22.8-17-23.7-17.1
		c0,0,0,0-0.1,0l0,0c12.1,2.2,19.8,10.1,22.5,18.4v0.1c1.2,3.2,1.8,6.6,1.9,10.3c0.1,3.5-0.7,7.4-2.2,11c-0.1,0.5-0.2,1.1-0.3,1.1
		h1.6C89.05,48.03,86.95,38.93,84.55,33.23z"/>
	<path class="st19" d="M27.95,45.13c0-16.4,13.3-29.9,29.8-29.9l0,0c16.5,0,29.8,13.4,29.8,29.9l0,0c0,16.4-13.3,29.7-29.8,29.7l0,0
		C41.25,74.83,27.95,61.53,27.95,45.13L27.95,45.13z M37.25,24.53c-5.3,5.3-8.6,12.6-8.6,20.6l0,0c0,8,3.3,15.3,8.5,20.5l0,0
		c5.3,5.2,12.6,8.5,20.6,8.5l0,0c8,0,15.3-3.2,20.5-8.5l0,0c5.3-5.2,8.5-12.5,8.5-20.5l0,0c0-8-3.3-15.3-8.5-20.6l0,0
		c-5.2-5.3-12.5-8.6-20.5-8.6l0,0C49.75,15.93,42.45,19.23,37.25,24.53L37.25,24.53z"/>
	<path class="st20" d="M33.65,57.83L33.65,57.83l20.4-14.7c1.1,0.6,2.9,1.4,3.1,1.4c0.2,0.1,0.2-0.1,0.2-0.1l-2.5-2.1
		c-0.3-0.2-0.4-0.5-0.4-0.8l2.4-24.1c-0.1,0.1-0.1,0.3-0.2,0.4c-0.1,0.2-0.1,0.3-0.1,0.5l-3.5,24.1l-19.2,15.1
		C33.75,57.63,33.65,57.73,33.65,57.83z"/>
</g>
</svg>
