<?xml version="1.0" encoding="UTF-8"?>
<svg id="logosandtypes_com" data-name="logosandtypes com" xmlns="http://www.w3.org/2000/svg" viewBox="0 0 150 150">
  <defs>
    <style>
      .cls-1 {
        fill: #00b1a9;
      }

      .cls-2 {
        fill: none;
      }
    </style>
  </defs>
  <path class="cls-2" d="M0,0H150V150H0V0Z"/>
  <path class="cls-1" d="M92.39,97.96c0,13.06-10.58,23.64-23.64,23.64s-23.64-10.58-23.64-23.64,10.58-23.64,23.64-23.64,23.64,10.58,23.64,23.64"/>
  <path class="cls-1" d="M99.15,65.4l29.95-51.85h-46.21c-12.89,.34-16.26,2.88-21.17,11.36,0,0-29.72,51.5-29.72,51.5-11.98,19.67-4.67,46.89,14.83,58.08,38.31,22.35,80.87-20.31,58.4-58.56l-6.08-10.53h0Zm-16.03-40.95h27.09l-17.36,30.06-16.91-29.3c1.58-.54,3.74-.76,7.18-.76m-14.37,105.27c-17.45,0-31.75-14.14-31.75-31.75,0-5.87,1.59-11.37,4.37-16.09l27.38-47.44,27.39,47.42v.03c12.48,20.69-3.05,48.09-27.38,47.84"/>
</svg>